<svg width="257" height="256" viewBox="0 0 257 256" fill="none" xmlns="http://www.w3.org/2000/svg">
<path d="M152.271 187.905C152.271 140.364 152.271 140.364 199.813 140.364C226.07 140.364 247.355 161.649 247.355 187.905C247.355 214.161 226.07 235.445 199.813 235.445C173.556 235.445 152.271 214.161 152.271 187.905Z" fill="black"/>
<path d="M9.6457 187.905C9.6457 161.649 30.9312 140.364 57.1881 140.364C104.73 140.364 104.73 140.364 104.73 187.905C104.73 214.161 83.445 235.445 57.1881 235.445C30.9312 235.445 9.6457 214.161 9.6457 187.905Z" fill="black"/>
<path d="M79.3998 68.0998C79.3998 41.8429 100.686 20.5574 126.944 20.5574C153.202 20.5574 174.488 41.8429 174.488 68.0998C174.488 94.3567 142.052 123.561 126.944 123.561C111.836 123.561 79.3998 94.3567 79.3998 68.0998Z" fill="black"/>
</svg>
