<svg width="136" height="71" viewBox="0 0 136 71" fill="none" xmlns="http://www.w3.org/2000/svg">
<path d="M135.091 34.7791C135.091 46.7786 121.744 56.6561 90.7745 57.5998C90.2377 57.6168 74.5681 57.5998 73.4379 57.5998C44.7611 57.5998 12.8023 41.6695 3.06407 36.4285C1.71701 35.7035 1.71703 33.8548 3.06411 33.1298C12.8021 27.8894 44.759 11.9613 73.4379 11.9613C74.6077 11.9613 90.3903 11.9443 90.9554 11.9613C121.8 12.9332 135.091 22.7995 135.091 34.7791ZM34.499 14.6313C34.5022 14.6313 34.504 14.6276 34.502 14.6251L26.925 5.13041C26.672 4.81332 26.3285 4.58069 25.9401 4.46337L14.1914 0.914028C12.8379 0.505106 11.499 1.59164 11.6204 3.00041L13.1014 20.1732C13.2201 21.5494 14.6734 22.4131 15.9491 21.8834C21.0801 19.7526 31.2207 15.7201 34.4979 14.6314C34.4982 14.6313 34.4986 14.6313 34.499 14.6313V14.6313ZM15.9511 47.6742C14.6749 47.1439 13.2199 48.0079 13.1012 49.3848L11.6205 66.5571C11.499 67.966 12.8383 69.0526 14.192 68.6433L25.9263 65.095C26.3145 64.9776 26.6578 64.745 26.9107 64.4281L32.7048 57.1675C33.5724 56.0803 33.1015 54.4458 31.7986 53.9587C27.3637 52.301 20.0558 49.38 15.9511 47.6742ZM72.4461 62.073C71.2009 62.0656 70.2179 63.1802 70.3849 64.4142L71.0308 69.1842C71.165 70.176 72.0118 70.9159 73.0127 70.9159H92.6849C93.5576 70.9159 94.3295 70.3501 94.5922 69.5179L96.1296 64.6475C96.5577 63.2911 95.4767 61.8997 94.0549 61.9401C88.2618 62.1049 77.3072 62.1017 72.4461 62.073Z" fill="#eab308"/>
</svg>
